<?xml version="1.0" encoding="iso-8859-1"?>
<!-- Generator: Adobe Illustrator 19.0.0, SVG Export Plug-In . SVG Version: 6.00 Build 0)  -->
<svg version="1.1" id="Capa_1" xmlns="http://www.w3.org/2000/svg" xmlns:xlink="http://www.w3.org/1999/xlink" x="0px" y="0px"
	 viewBox="0 0 512 512" style="enable-background:new 0 0 512 512;" xml:space="preserve">
<g>
	<g>
		<path d="M480,64H32C14.368,64,0,78.368,0,96v320c0,17.664,14.368,32,32,32h448c17.664,0,32-14.336,32-32V96
			C512,78.368,497.664,64,480,64z M192,320c0,7.392-5.12,13.888-12.32,15.552c-1.216,0.32-2.464,0.448-3.68,0.448
			c-5.952,0-11.552-3.328-14.304-8.832L128,259.776V320c0,8.832-7.168,16-16,16c-8.832,0-16-7.168-16-16V192
			c0-7.424,5.12-13.888,12.32-15.584c7.168-1.728,14.656,1.792,17.984,8.416L160,252.224V192c0-8.832,7.168-16,16-16
			c8.832,0,16,7.168,16,16V320z M272,240c8.832,0,16,7.168,16,16c0,8.832-7.168,16-16,16h-16v32h16c8.832,0,16,7.168,16,16
			c0,8.832-7.168,16-16,16h-32c-8.832,0-16-7.168-16-16V192c0-8.832,7.168-16,16-16h32c8.832,0,16,7.168,16,16
			c0,8.832-7.168,16-16,16h-16v32H272z M416,320c0,7.392-5.088,13.888-12.32,15.552c-1.248,0.32-2.464,0.448-3.68,0.448
			c-5.984,0-11.552-3.328-14.304-8.832L368,291.776l-17.696,35.36c-3.328,6.624-10.656,10.208-18.016,8.416
			C325.088,333.888,320,327.392,320,320V192c0-8.832,7.168-16,16-16c8.832,0,16,7.168,16,16v60.224l1.696-3.36
			c5.44-10.848,23.2-10.848,28.64,0l1.664,3.36V192c0-8.832,7.168-16,16-16c8.832,0,16,7.168,16,16V320z"/>
	</g>
</g>
<g>
</g>
<g>
</g>
<g>
</g>
<g>
</g>
<g>
</g>
<g>
</g>
<g>
</g>
<g>
</g>
<g>
</g>
<g>
</g>
<g>
</g>
<g>
</g>
<g>
</g>
<g>
</g>
<g>
</g>
</svg>
